<?xml version="1.0" encoding="UTF-8" standalone="no"?>
<svg
   xmlns:dc="http://purl.org/dc/elements/1.1/"
   xmlns:cc="http://creativecommons.org/ns#"
   xmlns:rdf="http://www.w3.org/1999/02/22-rdf-syntax-ns#"
   xmlns:svg="http://www.w3.org/2000/svg"
   xmlns="http://www.w3.org/2000/svg"
   xmlns:sodipodi="http://sodipodi.sourceforge.net/DTD/sodipodi-0.dtd"
   xmlns:inkscape="http://www.inkscape.org/namespaces/inkscape"
   inkscape:export-ydpi="94.933296"
   inkscape:export-xdpi="94.933296"
   inkscape:export-filename="C:\Users\augus\Pictures\Saved Pictures\zeropkg.png"
   width="185"
   height="185"
   viewBox="0 0 48.947917 48.947917"
   version="1.1"
   id="svg8"
   inkscape:version="1.0 (4035a4fb49, 2020-05-01)"
   sodipodi:docname="zeropkg.svg">
  <defs
     id="defs2">
    <inkscape:perspective
       sodipodi:type="inkscape:persp3d"
       inkscape:vp_x="0 : -99.552085 : 1"
       inkscape:vp_y="0 : 999.99998 : 0"
       inkscape:vp_z="210 : -99.552085 : 1"
       inkscape:persp3d-origin="105 : -149.05209 : 1"
       id="perspective1007" />
    <inkscape:perspective
       id="perspective1007-2"
       inkscape:persp3d-origin="-39.829018 : 160.09536 : 1"
       inkscape:vp_z="-203.29379 : 74.109074 : 1"
       inkscape:vp_y="0 : -1737.0973 : 0"
       inkscape:vp_x="123.63575 : 74.109074 : 1"
       sodipodi:type="inkscape:persp3d" />
  </defs>
  <sodipodi:namedview
     units="px"
     fit-margin-bottom="0"
     fit-margin-right="0"
     fit-margin-left="0"
     fit-margin-top="0"
     id="base"
     pagecolor="#ffffff"
     bordercolor="#666666"
     borderopacity="1.0"
     inkscape:pageopacity="0.0"
     inkscape:pageshadow="2"
     inkscape:zoom="1.2230522"
     inkscape:cx="61.192501"
     inkscape:cy="90.484857"
     inkscape:document-units="mm"
     inkscape:current-layer="layer1"
     inkscape:document-rotation="0"
     showgrid="false"
     inkscape:window-width="1280"
     inkscape:window-height="658"
     inkscape:window-x="-6"
     inkscape:window-y="-6"
     inkscape:window-maximized="1" />
  <metadata
     id="metadata5">
    <rdf:RDF>
      <cc:Work
         rdf:about="">
        <dc:format>image/svg+xml</dc:format>
        <dc:type
           rdf:resource="http://purl.org/dc/dcmitype/StillImage" />
        <dc:title></dc:title>
      </cc:Work>
    </rdf:RDF>
  </metadata>
  <g
     transform="translate(-30.074335,-170.54086)"
     inkscape:label="Layer 1"
     inkscape:groupmode="layer"
     id="layer1">
    <g
       sodipodi:type="inkscape:box3d"
       id="g1331"
       style="fill:none;stroke:#000000;stroke-width:1.88976;stroke-miterlimit:4;stroke-dasharray:none"
       inkscape:perspectiveID="#perspective1007-2"
       inkscape:corner0="1.1886399 : 0.12344373 : 0 : 1"
       inkscape:corner7="0.73322214 : 0.084822702 : 0.25 : 1">
      <path
         sodipodi:type="inkscape:box3dside"
         id="path1343"
         style="fill:#e9e9ff;fill-rule:evenodd;stroke:none;stroke-width:2.88379;stroke-linejoin:round"
         inkscape:box3dsidetype="11"
         d="m 53.163402,198.05148 -23.089065,12.09529 v -33.82802 l 23.089065,-5.77789 z"
         points="30.074337,210.14677 30.074337,176.31875 53.163402,170.54086 53.163402,198.05148 " />
      <path
         sodipodi:type="inkscape:box3dside"
         id="path1333"
         style="fill:#353564;fill-rule:evenodd;stroke:none;stroke-width:2.88379;stroke-linejoin:round"
         inkscape:box3dsidetype="6"
         d="m 79.022253,204.06797 v -30.65305 l -25.858851,-2.87406 v 27.51062 z"
         points="79.022253,173.41492 53.163402,170.54086 53.163402,198.05148 79.022253,204.06797 " />
      <path
         sodipodi:type="inkscape:box3dside"
         id="path1335"
         style="fill:#4d4d9f;fill-rule:evenodd;stroke:none;stroke-width:2.88379;stroke-linejoin:round"
         inkscape:box3dsidetype="5"
         d="M 79.022253,204.06797 59.397438,219.48878 30.074337,210.14677 53.163402,198.05148 Z"
         points="59.397438,219.48878 30.074337,210.14677 53.163402,198.05148 79.022253,204.06797 " />
      <path
         sodipodi:type="inkscape:box3dside"
         id="path1341"
         style="fill:#f0f0f0;fill-opacity:1;fill-rule:evenodd;stroke:none;stroke-width:2.88379;stroke-linejoin:round"
         inkscape:box3dsidetype="13"
         d="m 79.022253,173.41492 -19.624815,7.36648 -29.323101,-4.46265 23.089065,-5.77789 z"
         points="59.397438,180.7814 30.074337,176.31875 53.163402,170.54086 79.022253,173.41492 " />
      <path
         sodipodi:type="inkscape:box3dside"
         id="path1339"
         style="fill:#fafafa;fill-opacity:1;fill-rule:evenodd;stroke:none;stroke-width:2.88379;stroke-linejoin:round"
         inkscape:box3dsidetype="14"
         d="M 59.397438,219.48878 V 180.7814 l -29.323101,-4.46265 v 33.82802 z"
         points="59.397438,180.7814 30.074337,176.31875 30.074337,210.14677 59.397438,219.48878 " />
      <path
         sodipodi:type="inkscape:box3dside"
         id="path1337"
         style="fill:#e6e6e6;fill-opacity:1;fill-rule:evenodd;stroke:none;stroke-width:2.88379;stroke-linejoin:round"
         inkscape:box3dsidetype="3"
         d="M 79.022253,204.06797 59.397438,219.48878 V 180.7814 l 19.624815,-7.36648 z"
         points="59.397438,219.48878 59.397438,180.7814 79.022253,173.41492 79.022253,204.06797 " />
    </g>
    <g
       id="g1186"
       transform="matrix(0.19534384,0,0,0.19534384,10.467444,180.3675)">
      <g
         transform="matrix(0.25293433,0.07764383,-0.07764383,0.25293433,148.88442,41.291029)"
         id="g1134">
        <path
           id="shape0"
           d="M 148.2,73.8 147,59.9 142.9,46.3 134.4,31.9 125,20.7 113.7,11.9 100.9,5.6 86.3,1.7 74.5,0.7 62.8,2.1 47.2,6.2 35.8,11.3 24.8,19.8 14.6,31.4 6.6,46.8 3.4,54.7 1.2,68.2 v 13.9 l 1.6,10.5 4.5,12.3 7.5,13.7 12,12.1 9.6,7.2 13.6,6.7 7.4,2.2 8.9,0.4 4.6,1.1 10.9,0.1 12.2,-4.5 12.7,-7.3 18.3,-14 15.6,-18.6 6.9,-11.1 1.3,-7.3 v -6 c 0,0 -0.2,-1.9 -0.6,-5.8 z"
           fill-rule="evenodd"
           clip-rule="evenodd"
           fill="#c0fdf1"
           fill-opacity="0.4863" />
        <path
           id="shape1"
           d="m 154.4,78.6 6.2,6.8 11.9,24.5 6.2,13.2 1,7.4 v 6.6 l -2.6,2.6 -0.8,1.5 1,15.3 -0.1,5.4 7,-3.8 7,-4.6 2.6,10.2 -0.8,27.6 0.5,5.7 4.8,27.5 0.8,17.9 -0.8,14.4 -3.4,3.8 -8.9,2.5 -5.7,-0.9 -15,-13.4 -12.5,-9.3 -8.5,-7.8 -3.7,-5.9 -0.4,0.4 -1.1,0.9 -4.1,8.4 -8.1,8.8 -1.4,1 4.4,11.8 0.6,8.8 -4,4.7 -5.8,3.5 -3.8,-0.3 -7.3,-3.4 -9.2,-6.7 -9,-9 -5.4,-10.3 -0.3,-5.3 2.7,-10.9 4.5,-8.6 6.2,-11.4 1.3,-2.1 36.8,-20.1 -1.1,-0.8 -8.3,-1.7 -5,-1.2 -5.1,-3.6 -2.9,-3.8 -1.7,-5.2 -0.8,-4 -3.9,-3.5 -4.7,-2.5 -6.1,0.9 -3.5,2.1 -0.9,-1.3 -1.7,-1.8 -2.4,-0.3 -4,1.9 -4.8,3.6 -1.7,0.2 -5.6,-5.2 -2.9,-5.3 0.5,-1.5 7.1,1.5 14.4,-1.2 11.6,-5.8 17.2,-10.7 12.7,-11.3 9,-9.5 5.1,-7.2 5.5,-10.8 1.8,-5.6 0.8,-6.2 c -0.3,-0.1 -0.7,-2.6 -1.4,-7.6 z"
           fill-rule="evenodd"
           clip-rule="evenodd"
           fill="#f7a41d" />
        <path
           id="shape2"
           class="st2"
           d="m 77.9,185.9 -20.8,17.9 -9,-0.7 -2.6,-5 3.3,-4.4 3,2 1.4,0.3 4.5,-2.8 6.9,-1.2 2.4,-2.9 0.7,-3.7 4.8,-0.7 3.6,-1.7 c -0.2,0.2 0.4,1.1 1.8,2.9 z" />
        <path
           id="shape3"
           class="st2"
           d="m 84.6,201.1 6.3,-2.8 6.4,-2.4 6,1.6 9.1,-9.4 3.9,-6.2 1,-2.8 2.2,1.1 4.6,3 9.7,1.4 2.3,1.3 -45.8,25.3 -2.6,-2 -3.5,-5.5 c 0.1,0.2 0.2,-0.7 0.4,-2.6 z" />
        <path
           id="shape4"
           class="st2"
           d="m 148.3,69.8 15.2,-14.3 8.8,-1.8 27.5,11.7 4.9,2.7 4.7,7.5 24.1,48.8 0.6,6.3 -2,5.2 -5.4,4.7 3.2,1.6 c 2.5,0.3 4.6,1.1 6.4,2.3 1.8,1.2 3.4,2.9 5,5.1 l -0.2,7.8 -2.7,8.4 -5,5.4 -9.1,4.9 -6.1,1.1 -6.7,-0.9 -3.8,-3.3 -1.2,-7.1 -0.1,-5.6 -5.6,4.4 -3.8,1 h -3.6 l -1.5,-9.7 -1.3,-2.8 -14.1,9.3 0.1,-16.2 -1.2,-6.5 3.8,-3.5 0.2,-11.9 -11.9,-24.2 -7.6,-16.5 -6.2,-5.4 -1.8,-3.2 -2.3,-2.4 -1.5,-0.9 c 0.3,0.3 0.2,-0.4 0.2,-2 z" />
        <path
           id="shape5"
           class="st3"
           d="m 148.3,72.7 2.7,0.9 2.8,6 1.4,9.3 -2.1,7.6 -5.1,11 -6.7,9.7 -7.7,7.8 -8.2,7.8 -12.6,9.2 -9.4,5.2 -13.1,6.5 -9,0.8 -10.3,-0.5 -3.6,-3 -1.9,-2.9 2.5,-0.6 7.1,1.2 6.4,-0.6 9.8,-2.8 9.1,-5 11.8,-7.5 16,-13.6 12.8,-15.7 6.4,-10.8 1.5,-7.6 -0.1,-7.1 c 0,0.1 -0.1,-1.7 -0.5,-5.3 z" />
        <path
           id="shape6"
           class="st3"
           d="m 117.5,178.8 -4.1,-5.8 -1.2,-6 -0.4,-1.6 -6.5,-4.8 -3.6,-1 -5.4,1.6 -3,1.5 1.9,3.8 1.4,2.5 -3.9,4 -7.9,5.5 -1.9,1 -2,-4.1 -2.8,-2 -1.6,-0.3 -1.4,-3.7 2.5,-3.2 1.4,-1.2 -6.2,-4.9 -3,-6.1 -1.8,-0.7 -7.2,1.3 -3.4,0.8 1,3.4 1.8,1.4 -9.3,7.8 -1.7,3 -3.1,-3.4 -2.3,-0.7 -5.4,7.1 0.9,3.3 1.9,4.3 -0.2,3.2 0.7,3.3 9.6,7.7 h 1.9 l 5.1,-2.5 5,-1.1 3.6,-2.1 0.9,-4.2 1.7,-0.7 6.4,-1.9 2.5,2.2 1.4,2.4 -1.8,3.2 3,4.5 2.7,2.9 2.8,1.5 10.8,-4.1 4.9,1.3 2,-0.3 8.7,-9 3.7,-5.5 c -0.1,-0.1 0.2,-1.3 0.9,-3.6 z" />
        <path
           id="shape7"
           class="st3"
           d="m 181.4,263.5 8.1,-1.1 4.9,-2.1 2.5,-2.3 1.8,1.8 2.7,7.2 v 6.1 l -11.1,8.4 -7.9,5.8 -5.1,0.4 -2.2,-0.8 -2.1,-2.6 6,-14.7 c 0.1,0 0.9,-2.1 2.4,-6.1 z" />
        <path
           id="shape8"
           class="st3"
           d="m 130.2,266.3 2.8,3 1.7,8.7 -0.6,5.8 -2.2,2.6 -3.7,1.3 -30,-0.1 c -2.3,-2.9 -2.8,-5 -1.6,-6.3 1.2,-1.3 3.1,-2.7 5.8,-4.1 l 8.1,-6 4.8,2.4 4.8,0.6 4,-2.3 c 0.1,0 2.1,-1.9 6.1,-5.6 z" />
        <path
           id="shape9"
           class="st2"
           d="m 83.4,179.3 13.1,-9.8 -1,-2.4 -2.1,-4.7 -2.1,-3.2 -1.7,-0.5 -8.1,4.7 -5,3.8 -1.3,2.1 1.3,3.7 2.2,0.8 2.2,2.2 c 0.2,-0.1 1,1 2.5,3.3 z" />
        <path
           id="shape10"
           class="st2"
           d="m 50,170.2 4.2,-5.6 5.4,-4.2 -2.7,-5.2 -1.3,-3.9 -1.4,-0.8 -5.4,3.5 -5.8,5 -2.7,3.4 0.7,2.6 3.6,2.1 2.2,1.4 c 0.1,0 1.1,0.6 3.2,1.7 z" />
        <path
           id="shape11"
           d="m 206.5,160.3 -4.6,4 -3.4,1.7 -5.5,-0.5 -0.3,24 -0.6,3.8 1.7,5.8 0.6,2.8 21,2.1 11.6,-0.4 9.1,-3.3 14,-6.6 13.9,-9.9 9.5,-11.4 7.3,-11.5 3.5,-13.1 1.8,-10.9 0.8,-11.5 -1.8,-10.2 -4.2,-14.7 -5,-10 -9.4,-11.6 -5.8,-5.8 -9.2,-6.1 -11.2,-5.7 -11.2,-3.6 -6.4,-1.2 -3.5,0.5 -4.4,3.1 -2.5,2.8 -0.3,1.1 4.4,0.4 6.2,3.4 5.9,4.9 2.4,2.2 4.3,-2.6 2.6,-0.7 0.6,3.6 -1.2,4.3 -1.4,1.7 1.4,1.2 3.9,1.6 3.9,0.5 4.9,-0.2 1.4,0.2 1.1,0.5 3.9,7.9 1.1,2.5 -1.2,2.5 -2.8,1.8 -4.3,2 -4.7,-0.1 2.2,3.6 5.6,3.5 7.8,1 2,0.4 2.4,5.8 -0.4,7.7 -5,3.2 -4.4,0.2 -5.1,-1.7 0.3,1.7 3.4,5.6 3.8,3.6 4.5,3.2 -1,2.6 -4.7,6 -4.5,0.3 -1.2,-0.1 -3.3,-3.3 -1.8,-8.9 -2.9,4.3 -2,8.2 1.2,2.3 -0.3,10.2 -7,9.7 -9.8,5.9 -7.1,1.1 -6.4,-1.5 -3.6,-5.1 -0.9,-5.4 c -0.1,-0.2 0.1,-2 0.3,-5.4 z"
           fill-rule="evenodd"
           clip-rule="evenodd"
           fill="#728942" />
        <path
           id="shape12"
           d="m 148.6,74.4 -3.7,-2.8 -6.3,-0.8 5.8,-6.4 -1.4,-0.6 -14.5,1 -5.2,-0.5 -1.8,-2.3 6.8,-3.1 5.9,-5.5 0.6,-2.7 -5.6,1.7 -17,0.6 -7.7,-2 L 97,47.2 70.5,46.4 67.8,46.1 64.3,50 49,62.4 l -13.4,7.1 -15.2,5.1 -7.6,2.6 -3,7.7 1.3,8.7 0.7,4.7 3.2,3.9 1.9,2.2 2,4.3 6.7,4.5 7.3,3.4 6.4,1.8 5.6,4.1 9,8.3 6.9,3.4 6.8,3.7 3.8,4.4 10.3,5.3 9.1,-2.5 11.2,-5.3 11.3,-7.9 12.4,-9.9 6.8,-7.6 11,-13.8 4.4,-9.3 1,-7.4 -0.3,-6.2 z"
           fill-rule="evenodd"
           clip-rule="evenodd"
           fill="#9ca76c" />
        <path
           id="shape13"
           d="m 88.3,60.4 -12.1,4.1 -8.2,5.3 -0.1,5.2 3.3,5.6 5.2,3.1 h 6 l 7.7,-2.9 3.1,-3.5 1.2,-6.9 -1.5,-5.9 -2,-2.5 C 90.8,61.9 90,61.4 88.3,60.4 Z"
           fill-rule="evenodd"
           clip-rule="evenodd"
           fill="#edf7ce" />
        <path
           id="shape14"
           d="m 82.1,147.7 -7.1,-3 -5.7,-3.8 -1.9,3.3 -0.8,2.7 0.8,0.3 4.8,1.2 6.1,-0.1 c 0,0.1 1.3,-0.1 3.8,-0.6 z"
           fill-rule="evenodd"
           clip-rule="evenodd"
           fill="#dbcb88" />
        <path
           class="st8"
           d="m 148.9,79.2 c 0.1,-1.4 0.4,-6.4 0.4,-8.6 0,-2.2 -0.6,-6.5 -0.9,-7.8 -0.2,-0.9 -0.9,-4 -2,-9.2 -1.7,-4.7 -2.6,-7.4 -2.8,-8.3 -0.3,-1.3 -4.6,-9.5 -5.9,-11 -1.2,-1.5 -6.2,-8.4 -7.5,-9.6 -0.9,-0.8 -4,-3.6 -9.4,-8.5 C 115.4,11.9 111.6,9.3 109.4,8.3 106.1,6.8 101.8,4.8 99,4 96.3,3.2 92.4,1.7 90.9,1.3 89.4,0.9 81.6,-0.1 74.7,0 67.8,0.1 56.6,2 54.5,2.6 53,3 48.8,4.5 41.9,7.2 c -3.9,2 -6.7,3.6 -8.6,4.9 -2.8,1.9 -6.1,5 -8.6,7 -2.5,2 -4.9,4.7 -6.1,6 -1.2,1.3 -4.4,5.9 -6,8 -1.6,2.1 -4.8,8.3 -5.6,10.1 -0.8,1.8 -1.8,4.5 -2.7,7 -0.9,2.6 -1.8,4.9 -2.5,8.1 -0.7,3.2 -1.3,5.9 -1.4,8 -0.1,1.4 -0.1,4.8 -0.2,10.1 0.1,5.1 0.5,9.1 1,12.2 0.8,4.6 4.6,15.4 5.2,17.1 0.6,1.7 4.4,8.4 5.9,10.8 1.5,2.5 6.9,8.9 8.9,10.6 2,1.6 6.4,6.1 9.6,8.3 3.2,2.1 9.9,6.3 12.4,7.5 2.5,1.2 7.5,3.2 9.8,3.5 2.3,0.4 7.2,1.7 10.2,1.8 2,0.1 4.2,0 6.5,-0.1 l -3.3,-1.6 -7.4,-0.3 -4.5,-0.8 c -4,-1.8 -6.6,-2.8 -7.8,-3 -1.8,-0.3 -8,-4.3 -9.4,-4.8 -1,-0.3 -3.4,-2.1 -7.4,-5.3 L 23.7,126.7 18.4,121 13,113.7 C 9.7,107.6 7.9,104 7.4,102.8 6.7,101.1 3.5,92.1 3.4,90.5 3.1,89 2,80.1 2,77.7 2,75.4 1.8,70.1 1.9,68.7 2,67.7 3,62.5 4.8,53.2 7.4,47.3 9.1,43.6 9.8,42 c 0.7,-1.6 2.7,-5.2 6.1,-10.8 l 7.9,-8.9 c 3.9,-3.7 6.8,-6.1 8.4,-7.3 2.5,-1.7 10.6,-6.6 19.4,-9.1 8.8,-2.5 18.8,-4 20.8,-3.8 2,0.2 11.2,-0.3 13.6,0.5 2.4,0.8 7.3,1.8 10.8,2.9 2.3,0.7 6.7,2.5 13.2,5.5 5.8,3.5 9.2,5.9 10.1,7.1 1.5,1.9 7.9,7 9.7,9.2 1.8,2.2 6.8,9 7.4,10.5 0.6,1.5 4.9,7.8 6,11.7 1.1,3.9 2.9,9.8 3.4,14.6 0.5,4.7 0.9,8.1 0.7,9.7 -0.2,1.1 -0.1,2.2 0.2,3.3 0.2,0.6 0.7,1.4 1.4,2.1 z"
           id="path1040" />
        <path
           id="shape15"
           class="st8"
           d="m 148.9,74.6 -2.8,-4.1 -4.1,-0.4 -0.8,-0.7 3.4,-3.8 1.4,-3.2 c -2.7,0.7 -5.2,1.1 -7.5,1.1 -3.5,0.1 -9.7,0.2 -12,0.3 -1.5,0 -2.8,-0.5 -4,-1.4 2.7,-0.5 4.6,-1.3 5.8,-2.3 1.2,-1 3.6,-3 7,-6 l 1.3,-3.7 -0.3,-1.3 c -3.1,1.4 -5.6,2.1 -7.4,2.1 -2.8,0.1 -14,0.2 -16.8,0.6 -1.9,0.3 -3.4,0.2 -4.3,-0.3 C 101,48.2 97.1,46.4 95.9,46.3 94.1,46.1 85,45.2 81.7,45.5 c -3.3,0.4 -8.8,-0.6 -11.4,-0.3 -2.6,0.3 -3.1,0.1 -5.7,3.1 -2.5,2.9 -8.3,8 -11.2,10.1 -3,2.1 -15.2,8.6 -19.2,10.4 -4,1.8 -14.2,4.5 -16.9,5.4 -2.7,0.9 -5,1.2 -6.5,4.6 -1.5,3.4 -3.3,8.8 -1.7,13 1.6,4.2 2.3,6.8 4.3,9.5 1.3,1.8 2.4,3.2 3.1,4.2 l 0.8,2.1 3.8,4.4 10.3,5.1 8.4,2.7 8.2,7.2 6.8,5.2 7.6,3.9 4.2,2.2 c 0.7,1.5 1.5,2.9 2.5,4.2 1,1.3 4.7,3.3 11.1,5.9 l 4,-0.8 -10.4,-4.8 -5.4,-5.4 2.2,-0.2 5.2,1.1 14.5,-1.8 c 4.1,-0.7 6.9,-1.8 8.3,-3.2 1.4,-1.4 2.9,-2.9 4.5,-4.4 l -3.3,0.1 c -1.9,1.7 -3.5,2.9 -5,3.8 -1.5,0.9 -5.1,2 -11,3.4 l -12,-0.3 -8.1,-1.2 -6.6,-3.1 -6.2,-4.5 -4.8,-5.2 -5.8,-4.9 -8.3,-1.6 -7.1,-3.3 -5,-3.5 -2.2,-3.6 4.2,-0.8 3.1,-1.4 3.6,2.6 1.6,2 1.5,-2.7 3.1,-0.5 7.4,6.4 1.6,-6 9.2,-0.1 11,-1.7 11.1,-2 6.5,-2.1 1,0.8 2.1,4.4 2,2.3 2,-3.7 2.6,-3.2 4.7,-0.9 2.3,-1.4 1.5,3.3 1.7,3 1,-4.2 2,-2.5 c 2.6,-0.7 4.4,-1.8 5.4,-3.1 1,-1.3 2.4,-3.5 4.1,-6.5 0,-2.2 -1,-3.4 -2.8,-3.5 -1.8,-0.2 -3.5,0 -5,0.5 l 0.4,1.3 2.3,0.9 1.3,1.6 -1.2,3.4 -3.5,2.8 -2.8,1.5 -1.4,2.7 -0.4,1.5 -1.9,-4.1 -5,2.1 -4.6,0.8 -2.9,4.2 -4.9,-5.5 C 80.4,96.9 79,97 77.4,97.6 c -1.6,0.6 -3.5,1.3 -5.7,2.1 l -14.4,2.6 -10.8,0.8 -3.1,-0.6 -2,3.5 -0.3,1.4 -5.3,-4.6 -1.8,-1.8 -3.6,2.4 -1.2,0.6 -3.7,-2.7 -2.1,-0.2 -6.4,2.5 -4.3,-6.1 -2,-11.6 2.4,-7.6 c 2.9,-1.8 5.6,-2.9 8,-3.3 2.4,-0.4 7.4,-1.8 15.2,-4.4 l 15.8,-8.8 11.2,-9.3 4.5,-4.8 c 8,0 13.1,-0.1 15.5,-0.2 2.4,-0.1 6.3,0 11.8,0.3 3.3,1.9 5.6,3.1 6.9,3.5 1.3,0.4 4.5,1.5 9.7,3.3 4.9,-0.6 8,-1 9.5,-1.2 1.5,-0.2 4.6,-0.2 9.4,-0.1 l 2.6,-0.8 -3.6,3.8 -5.6,3.8 -3.9,1.7 -0.9,0.5 c 2.1,2 3.7,3.1 4.9,3.3 1.8,0.3 6.7,0.3 8.5,0 1.2,-0.2 3.9,-0.3 8.1,-0.1 l 2.1,-0.9 -4.3,4.9 -2.4,1.5 3.2,1.9 4.6,0.3 c 0.5,0.2 2.1,0.7 5,1.4 z" />
        <path
           id="shape16"
           class="st8"
           d="m 18.7,85.9 c -1.6,0.9 -1.9,1.6 -0.9,2.3 1,0.7 2.1,1.2 3.5,1.6 l 2,2.1 1,0.4 -0.4,-3 -2.1,-2.3 c -0.5,-0.1 -1.5,-0.5 -3.1,-1.1 z" />
        <path
           id="shape17"
           class="st8"
           d="m 68.1,71.9 c 1.2,-1.6 2.7,-2.8 4.7,-3.7 2.9,-1.4 4.2,-3.4 8.2,-4.2 4,-0.9 3.3,-1.2 6.1,-2.1 1.8,-0.6 3,-0.9 3.7,-0.8 l -0.4,-1.5 c -0.5,-0.8 -1.6,-0.9 -3.2,-0.4 -2.4,0.8 -3.9,1.4 -6.3,2.6 -2.5,1.1 -5.2,2.1 -7.4,3.4 -1.4,0.8 -2.8,1.7 -4.2,2.7 L 67,69.3 c -0.3,0.6 0.1,1.5 1.1,2.6 z" />
        <path
           id="shape18"
           class="st8"
           d="m 90.1,59.6 c 1.7,1.3 2.7,2.8 3.1,4.4 0.6,2.4 2,4.7 1.7,7.2 -0.2,1.7 -0.6,3.9 -1.3,6.8 l -3.2,3.7 c -1.8,1.3 -3.4,2.2 -5,2.6 -2.4,0.6 -3.2,0.8 -5.9,0.5 -2.7,-0.3 -4.7,-0.5 -6.6,-1.9 -1.3,-0.9 -2.7,-2.4 -4.2,-4.5 l -1.4,-4.1 v -4.4 l 1.4,-0.4 c -0.3,1.2 -0.4,2.4 -0.2,3.6 0.1,1.1 0.8,3 1.9,5.5 l 4.3,3.7 c 2.4,0.6 4.2,0.9 5.5,0.9 1.9,-0.1 4.5,-0.1 6.8,-1.3 1.5,-0.8 3.2,-2.3 5,-4.5 1.1,-1.2 1.6,-2.7 1.4,-4.4 -0.2,-2.6 -0.2,-3.4 -1.1,-5.7 -0.6,-1.5 -1.3,-3.2 -2.1,-5.1 l -2.4,-1.6 c -0.1,-0.2 0.8,-0.5 2.3,-1 z" />
        <path
           id="shape19"
           class="st8"
           d="m 82.3,67.9 -2.1,1.9 -0.4,4.1 0.3,3.6 0.4,2.3 1.9,1.8 1.5,-1.7 L 84,75 83.8,69.9 c 0,-0.2 -0.5,-0.8 -1.5,-2 z" />
        <path
           id="shape20"
           class="st8"
           d="m 147.7,76.1 c 0.4,3.1 0.5,5.2 0.5,6.5 -0.1,1.9 -0.8,6.8 -1.4,8.6 -0.6,1.9 -5.2,9.6 -6.7,12 -1.5,2.4 -9.7,12.4 -12.4,15.4 -1.8,2 -6.7,6.2 -14.7,12.8 l -15,9.6 -14,6 -10.5,1.1 -5.2,-1.1 -1.4,-0.5 -0.4,1.6 5.4,0.8 8.4,0.3 16.5,-5.3 11.8,-7.6 18.2,-14.3 c 9.1,-10.3 14.1,-16 14.8,-17.2 1,-1.8 7.1,-10.9 7.5,-13.3 0.2,-1.5 0.4,-4.7 0.4,-9.5 l -0.7,-7.7 c 0.1,0.1 -0.3,0.7 -1.1,1.8 z" />
        <path
           id="shape21"
           class="st8"
           d="m 66.3,147 3,4.8 6.9,1.5 c 6.8,0.1 11,-0.1 12.6,-0.6 2.4,-0.8 20.2,-9.1 21.9,-10.4 1.2,-0.8 4.1,-3 8.6,-6.6 5.9,-4.5 9.5,-7.4 10.9,-8.9 2.1,-2.1 8,-7.2 9.7,-9.7 1.6,-2.5 5.2,-7.2 6.6,-9.7 0.9,-1.7 3,-5.6 6.1,-11.9 1.5,-5.8 1.9,-9.6 1.3,-11.3 -0.6,-1.7 -1.2,-3.9 -1.8,-6.6 l -1.9,-3.6 -1.9,-1 0.9,-1.8 3.4,3.1 3.1,8.2 c 0.5,4.4 0.5,7.3 -0.2,8.8 -0.9,2.3 -2.7,9.1 -4.4,11.8 -1.1,1.8 -4.2,6.7 -9.2,14.7 l -5.8,5.7 c -6.8,6.6 -10.8,10.4 -11.9,11.4 -1.7,1.5 -13.1,9 -14.8,10.1 -1.7,1.1 -5.4,3 -9.1,5 -3.7,2 -9.3,4 -11.4,4.5 -2.1,0.5 -5.2,0.4 -7.4,0.8 -1.5,0.3 -4.6,0.2 -9.3,-0.4 l -4.5,-2.7 -3.7,-4.5 c 1,-0.1 1.8,-0.3 2.3,-0.7 z" />
        <path
           id="shape22"
           class="st8"
           d="m 70.6,153.4 1.5,3.7 3.8,4.6 3.7,2 0.6,0.8 -2.2,1.5 -3.9,-3.3 -4.4,-5.7 -1.1,-5 c 0.2,0.5 0.8,0.9 2,1.4 z" />
        <path
           id="shape23"
           class="st8"
           d="m 68.9,152.7 c -2.9,0.1 -5.1,0.3 -6.6,0.6 -1.5,0.3 -2.8,0.6 -4,0.9 l -1.1,1.4 0.8,1.6 1.9,-1.4 c 1.9,-0.5 3.5,-0.8 4.8,-1 1.3,-0.2 2.8,-0.2 4.5,-0.1 0.7,0 0.6,-0.6 -0.3,-2 z" />
        <path
           id="shape24"
           class="st8"
           d="m 76.6,183.6 c -1.2,0.4 -2.5,1 -4,1.7 -1.1,0.6 -2.3,0.9 -3.6,1 -1.3,0.1 -2,-0.1 -2,-0.5 l 1.2,-1.6 h 2.7 l 2.8,-0.9 c 0.7,-0.3 1.6,-0.2 2.9,0.3 z" />
        <path
           id="shape25"
           class="st8"
           d="m 58.7,162.4 3.4,-2.5 c 0.6,-1.4 0.1,-1.7 -1.3,-1.1 -2.1,0.9 -3.2,1.1 -5,3.4 -1.2,1.5 -2.4,2.8 -3.7,3.8 l -2.4,2.3 c -0.4,1 -0.6,2.1 -0.5,3.4 0.1,1.3 0.4,2.7 1,4.3 l 1.5,2.8 2.3,-2.1 2.9,-2.9 c 4.9,-0.4 7.9,-0.8 9.1,-1 1.2,-0.3 2.1,0 2.7,0.8 l 0.9,8.2 -2.7,2.3 -0.8,3.8 -1.9,2.7 -5,1.7 -2.9,0.8 -3.6,2.6 -10.2,-7.1 -1.1,-4 1.4,-2.1 -3.9,-6.9 2.6,-4 2.8,-3.3 c -0.7,-2 -1.4,-2.4 -2.1,-1.2 -0.7,1.2 -2.3,3.5 -4.7,6.9 -1,0.3 -1.1,1.2 -0.4,2.8 1.1,2.3 2.6,2.6 2.6,4.4 0,1.8 -0.5,3.2 0.1,5.6 0.4,1.6 2.3,3.7 5.9,6.4 l 6.5,4.1 c 1.6,-0.9 3.1,-1.6 4.5,-2.1 2.1,-0.8 3.3,-0.2 5.8,-1.1 1.7,-0.6 3.5,-1.8 5.6,-3.6 -0.5,-1.7 -0.5,-3.1 -0.1,-4.3 0.4,-1.2 1.1,-2.2 2.3,-2.9 1.1,-1.1 1.5,-2.3 1.1,-3.6 -0.4,-1.3 -0.8,-3.9 -1.4,-7.7 0.4,-1.3 -0.8,-1.6 -3.6,-1 -2.9,0.6 -5.8,1.2 -9,1.8 l -4.3,2.7 -2.1,-3.2 c 0.1,-2.1 0.8,-3.6 2,-4.5 1.9,-1.5 2.2,-1.7 5.7,-5.4 z" />
        <path
           id="shape26"
           class="st8"
           d="m 60.7,159.8 -2.5,-3.5 -0.8,-2.6 -1.6,-2.9 c -1.3,-1.3 -2.8,-1.3 -4.6,0.1 -1.8,1.4 -3.7,3 -5.7,4.8 -2.9,2.3 -4.7,4 -5.3,5.2 -0.9,1.7 -1.2,2.3 -0.5,3.6 0.5,0.9 1.7,1.6 3.7,2.2 l 2.2,2.2 3.4,2.4 1,1.3 v -2.9 l -3.7,-2.7 -3.2,-1.9 -1.9,-1.9 c 0.4,-1.8 1.4,-3.3 2.9,-4.5 2.3,-1.8 5.8,-4.9 7.6,-5.9 1.8,-1 2.8,-2.9 3.4,-0.8 0.4,1.4 0.9,3.1 1.6,5.3 l 1.9,3.1 c 0.4,0.4 1.1,0.2 2.1,-0.6 z" />
        <path
           id="shape27"
           class="st8"
           d="m 81.6,179 c 1.9,-1 4,-2 5.7,-3.3 1.2,-0.9 3.5,-2.5 6.9,-4.8 l 2.4,-2.7 2.6,-2.2 0.8,2.1 c -1.1,0.2 -2.2,0.9 -3.4,2.2 -1.2,1.3 -3.3,3 -6.1,5 -2.1,1.5 -3.7,2.6 -5,3.3 -1.2,0.7 -1.9,1.3 -2,1.7 -0.4,0.1 -1,-0.3 -1.9,-1.3 z" />
        <path
           id="shape28"
           class="st8"
           d="m 97.1,168.5 -2,-2.7 -1.3,-3.6 -1,-2.7 -2.4,-1.4 c -0.9,0.3 -2.2,0.9 -4.1,1.7 -2.8,1.2 -3.9,2.2 -5.7,3.7 -1.2,1 -2.1,1.7 -2.8,1.9 l -2.8,2.9 c -0.9,0.5 -1.1,1.3 -0.6,2.4 0.5,1.1 1.4,2.2 2.5,3.1 1.5,-0.1 2.5,0.5 3,1.8 0.5,1.3 1.1,2.2 1.8,2.8 l 1.2,1.1 1,-1 -2.1,-2.7 -3.1,-2.9 c -1.1,0.2 -1.9,-0.3 -2.2,-1.6 -0.4,-1.2 -0.3,-2.5 0.3,-3.7 l 7.8,-5.1 c 2.4,-2.5 4.2,-3.4 5.4,-2.9 1.2,0.6 2,1.5 2.7,3 l 1.6,3.8 c 1.1,2.2 1.8,3.2 2.1,3.1 0.3,-0.2 0.6,-0.5 0.7,-1 z" />
        <path
           id="shape29"
           class="st8"
           d="m 112.4,165.3 c -4.9,-4.1 -7.8,-6.2 -8.7,-6.2 -1.4,0 -4.5,0.1 -5.9,0.8 l -4.4,2.2 0.5,2.1 c 0.7,-0.7 1.5,-1.3 2.5,-1.8 1.4,-0.7 2.7,-1.7 4.6,-1.6 1.2,0.1 2.6,0.2 4.1,0.4 l 3.3,2.4 3.4,3.4 c -0.1,-0.1 0.2,-0.6 0.6,-1.7 z" />
        <path
           id="shape30"
           class="st8"
           d="m 77.6,173.7 c -0.9,1.1 -1.5,2.2 -1.9,3.3 -0.6,1.7 -1.3,2.6 -1.3,4 0,0.9 0.3,1.8 0.8,2.8 l 3.3,3.3 c -1.8,2.3 -2.4,4 -1.8,4.9 0.5,1 2,2.3 4.3,3.9 l 1.4,2.6 c 2.9,1.4 4.9,1.8 6.1,1.2 1.2,-0.6 3.6,-1.5 7.4,-2.7 l 7.3,1.4 c 6.1,-5.9 9.4,-9.3 9.9,-10.1 0.7,-1.3 4.3,-5.8 4.5,-7.2 0.1,-0.9 0.1,-2 0,-3.3 l -1.4,0.5 c -0.2,1.8 -0.5,3.1 -1,3.9 -0.5,0.9 -2.3,3.6 -5.5,8.1 l -6.3,5.8 c -2.8,-0.8 -4.8,-1.1 -6,-1.1 -1.7,0.1 -3.5,0.8 -5.8,1.8 -2.3,1 -4.4,2.2 -5.8,1.6 -0.9,-0.4 -2.1,-1.2 -3.5,-2.4 l -3.6,-4.9 2.4,-4.2 c -2.9,-2.4 -4.4,-4.1 -4.5,-5 -0.1,-1 0.5,-3.1 1.8,-6.3 l 0.9,-1.4 c 0.2,0.1 -0.4,-0.2 -1.7,-0.5 z" />
        <path
           id="shape31"
           class="st8"
           d="m 78.7,186.7 -20.4,17 c -0.7,0.5 -1.4,0.7 -2.1,0.8 -0.7,0 -3.4,-0.3 -8.3,-1 -1.4,-1.4 -2.3,-2.6 -2.6,-3.8 -0.5,-1.8 -0.4,-2.3 0.5,-3.4 0.6,-0.7 1.3,-1.6 2.2,-2.7 l 1.7,0.8 -2.4,2.3 c -0.7,1 -0.9,1.7 -0.7,2.1 0.2,0.4 0.8,1.5 1.9,3.2 4.5,0.7 7,0.9 7.7,0.6 0.6,-0.3 2.4,-1.6 5.4,-3.7 l 15.8,-13.7 c 0.2,-0.2 0.6,0.4 1.3,1.5 z" />
        <path
           id="shape32"
           class="st8"
           d="m 125.1,149.8 1.8,-1.1 -0.3,-5.4 4.1,-8.6 c 7.9,-8.6 12.6,-13.2 14.1,-14 2.3,-1.1 12.8,-3 16,-2.4 3.2,0.6 5.4,2.5 6.5,4.9 1.1,2.4 7.7,17.1 7.9,19.4 0.2,1.5 0.4,8.8 0.6,21.9 -1.7,2.7 -5,6 -9.6,9.9 -4.7,3.9 -9.5,7.1 -14.5,9.5 -7.4,1 -12.1,1.4 -14.1,1.1 -2,-0.3 -7.1,-1.4 -15.4,-3.3 -3.4,-2.7 -5.5,-4.7 -6.4,-6.1 -0.9,-1.4 -1.9,-4.4 -2.9,-9 1.2,-3.3 2.7,-5.7 4.3,-7.3 2.5,-2.4 7.9,-9 15.9,-11 8,-2 13.4,-2.3 15.6,-1.9 1.4,0.3 4.2,0.5 8.2,0.6 -0.3,-1.3 -1.9,-2.1 -4.8,-2.3 -4.4,-0.4 -7.4,-0.7 -9.9,0.1 -1.7,0.6 -5.2,1.4 -10.7,2.5 l -4.5,1.4 -1.9,1.1 -9.5,9.5 -4,6.4 v 1.4 l 0.5,4.3 4.6,8.1 5.5,3.7 c 9.1,2.2 14.6,3.4 16.4,3.5 1.8,0.1 7.2,-0.4 16.1,-1.4 13.8,-9.2 21.2,-15.2 22.2,-18 1.5,-4.3 1.7,-13.7 1.3,-16.5 -0.4,-2.8 -0.2,-8.6 -2.4,-12.7 -2.1,-4.1 -4.3,-11.3 -6.3,-14.8 -2,-3.5 -3.5,-6.6 -5.9,-6.8 -2.5,-0.2 -11.3,-1.3 -17.2,1.6 -5.8,2.9 -8.1,6.2 -10.7,9.3 -2.6,3.1 -5.5,5.1 -7.3,8.8 -1.8,3.8 -2.8,4.6 -3.3,7.2 -0.3,1.7 -0.5,2.8 -0.4,3.3 -0.3,0.6 0,1.7 0.4,3.1 z" />
        <path
           id="shape33"
           class="st8"
           d="m 153.2,76.4 4.6,3.1 c 3.5,4.9 5.5,7.9 5.8,9.1 0.6,1.7 5.6,11.8 6.3,13.9 0.5,1.4 3.8,8.6 10,21.6 l 0.4,13 -3.5,3.8 -1.6,-1.1 3.6,-3.8 c 0.1,-6 -0.1,-9.5 -0.5,-10.7 -0.6,-1.7 -7,-15.7 -7.9,-17.4 -0.6,-1.2 -4.3,-8.8 -11.3,-22.9 l -4.9,-4.8 c -0.4,-0.2 -0.8,-1.5 -1,-3.8 z" />
        <path
           id="shape34"
           class="st8"
           d="m 138.7,186.2 -48,26.3 -1.9,-0.7 -5.1,-7.6 -0.1,-3.4 2,-1.3 2.2,0.3 -2.4,1.8 c -0.2,1 0.2,2.2 1,3.6 0.8,1.4 2,3 3.6,4.8 l 45.7,-24.3 c -0.2,-0.1 0.9,0.1 3,0.5 z" />
        <path
           id="shape35"
           class="st8"
           d="m 179.1,124.3 8.2,-6.9 c 1.8,-1.4 3.1,-1.5 3.7,-0.3 0.6,1.2 3.2,5.8 7.8,13.7 l 0.9,2.5 0.9,14.3 -3.3,2.7 -20.6,13.2 0.3,-2.1 20.7,-13.8 0.1,-15 -7.5,-13.3 c -0.9,-1 -1.9,-1.1 -2.8,-0.3 -0.9,0.7 -3.7,3.3 -8.2,7.8 0.1,0.1 0,-0.8 -0.2,-2.5 z" />
        <path
           id="shape36"
           class="st8"
           d="m 148.2,68.6 14.1,-13 c 2.9,-1.7 5.4,-2.6 7.6,-2.6 2.2,0 4.2,0.3 6,0.9 L 198.8,64 c 3.2,1.5 5.3,2.8 6.5,3.9 1.1,1.1 2.5,3.1 4.1,5.9 l 25,50.7 c 0.9,2.6 1.1,4.6 0.7,6.1 -0.4,1.5 -1.1,3.3 -2.1,5.4 l -30.8,29.2 c -1,1.2 -2.5,1.7 -4.5,1.6 -2,-0.1 -3.6,-0.2 -5,-0.4 l 0.6,-2.1 c 1.8,0.7 3.4,0.7 5,0.2 1.6,-0.5 3,-1.1 4.2,-1.9 l 29.2,-28 c 1.1,-1.8 1.6,-3.5 1.6,-5.2 0,-1.7 -0.2,-3.2 -0.6,-4.6 L 206,72 c -0.8,-2 -2,-3.3 -3.4,-3.8 -1.4,-0.5 -2.8,-1.3 -4.2,-2.5 l -25,-10.4 c -1.4,-0.1 -2.8,-0.1 -4.3,0 -1.5,0.1 -3.4,0.7 -5.7,1.6 l -15.1,14 c -0.1,0 -0.1,-0.8 -0.1,-2.3 z" />
        <path
           id="shape37"
           class="st8"
           d="m 167.5,100.2 27.6,-26.9 c 0.8,-1.2 1.2,-2.4 1.3,-3.6 0.1,-1.2 0.1,-2.2 0.2,-2.9 1.1,0.1 1.7,0.9 1.6,2.4 0,2.2 -0.3,3.8 -1.2,4.7 -1,0.9 -4.2,3.7 -5.1,4.6 -0.6,0.6 -8.3,8.2 -23.2,22.8 -0.2,0.1 -0.6,-0.3 -1.2,-1.1 z" />
        <path
           id="shape38"
           class="st8"
           d="m 169.3,103.7 28.9,-26.1 c 1.6,-1.1 3.1,-1.6 4.5,-1.5 1.4,0.1 2.4,0.2 3,0.2 l 0.4,0.8 c -0.2,0.1 -0.8,0.2 -1.9,0.3 -1.6,0.1 -2.5,-0.2 -4,0.8 -1.5,1 -3.5,2.8 -5.1,3.9 -1,0.7 -7.3,6.4 -18.9,17.1 l -6.3,5.9 c 0,0 -0.3,-0.5 -0.6,-1.4 z" />
        <path
           id="shape42"
           class="st8"
           d="m 189.7,154.3 2.5,-1.7 c 1.4,6 2.1,10.1 2.1,12.6 -0.1,3.7 -0.5,24 -0.8,25.6 -0.2,1.1 -0.7,2.6 -1.5,4.5 -11.4,4.8 -19.4,7.5 -23.8,8.3 -6.6,1.2 -20.2,2.2 -22.6,3 -1.6,0.5 -5.3,0.4 -11.3,-0.2 -10.1,-2.5 -15.7,-4 -16.6,-4.3 -1,-0.4 -2.2,-1.4 -3.7,-3 1.3,-1.5 2.2,-2 2.7,-1.6 0.7,0.7 2.9,3.2 7,4.4 4,1.2 13.8,3.2 18.2,3.2 4.4,0 18.5,-1.7 21.5,-2.5 3,-0.9 18,-4.1 19.8,-5.4 1.9,-1.3 7.3,-2.1 7.8,-3.9 0.5,-1.9 1.6,-9.4 1.3,-11.7 -0.2,-2.3 0.8,-10.9 0.2,-12.3 -0.6,-1.4 -0.3,-8.3 -0.9,-10.5 -0.7,-2.2 -0.7,-2.2 -1.9,-4.5 z" />
        <path
           id="shape43"
           class="st8"
           d="m 192.6,191.3 c 0.9,2 1.6,4.5 2.1,7.4 0.8,4.5 1.9,12.7 2.6,16.3 0.7,3.6 1.6,9.9 1.7,12.1 0.1,2.2 0.5,22.7 0.5,24.9 0,1.5 -0.4,3.6 -1,6.3 -4,3 -6.7,4.6 -8.2,4.8 -1.5,0.2 -4.3,0.5 -8.2,0.9 -3.6,-2.6 -6.6,-4.8 -9,-6.5 -3.5,-2.5 -9.2,-9.1 -11.2,-10.3 -2,-1.3 -11.2,-7.8 -12.9,-9.1 -1.2,-0.9 -4.1,-4.4 -8.8,-10.7 -1.2,2.6 -2.5,4.9 -3.8,7 -1.3,2 -4.1,5.3 -8.4,9.8 l -1.8,1.2 c 2.9,5.9 4.5,9.9 4.8,12.1 0.2,2.2 0.3,5.2 0.2,9.1 l -7,7.4 -6.2,1.3 c -4.7,-1.7 -9,-3.9 -12.7,-6.6 -5.6,-4.1 -11.2,-8.9 -13.6,-12.4 -1.6,-2.3 -4.1,-7 -7.5,-14 1.2,-8.1 2.6,-13.5 4.1,-16.5 2.3,-4.4 8,-14.1 8.8,-16.2 0.5,-1.4 1.5,-2.8 2.9,-4.3 l 1.4,0.2 C 93.2,218.5 88.8,227 88,231 c -1.1,6 -2.7,8.6 -2.1,11.3 0.6,2.7 3.1,7.9 4.5,9.9 1.4,2 13.6,14.8 18.3,17 4.7,2.2 9.7,4.5 11.6,3.5 1.3,-0.7 3.8,-2.4 7.6,-5.1 1.1,-3.3 1.3,-6.2 0.7,-8.7 -0.6,-2.6 -1.6,-6.2 -3,-10.9 l -1.3,-2.1 c -6.4,2.7 -10.2,3.7 -11.4,3.2 -1.7,-0.9 -3,-0.3 1.4,-1.7 2.9,-0.9 6.8,-2.2 11.6,-4 6,-5.5 9.3,-9.1 9.7,-10.9 0.4,-1.8 1.4,-4.3 2.9,-7.6 l 1.5,-1.6 c 2.6,4.5 4.9,7.7 6.8,9.7 2.9,2.9 17.6,13.2 19.9,14.9 2.3,1.7 6.4,8.8 9.9,10.2 3.5,1.4 5,4.5 8.1,4 3.1,-0.5 9.6,-1.6 10.7,-3.7 1.1,-2.1 2.5,-4.7 2.3,-8.1 -0.2,-3.4 0.1,-21.7 -0.5,-24.4 -0.6,-2.7 -1.7,-14.2 -2.9,-17.9 -0.8,-2.5 -1.7,-7.2 -2.7,-14 -0.1,-0.5 0.2,-1.4 1,-2.7 z" />
        <path
           id="shape44"
           class="st8"
           d="m 225.6,142.1 2,-2.1 5.6,2 6.4,4 c 2.1,1.9 3.2,3.8 3.1,5.5 -0.1,2.7 -0.4,8.8 -2.5,12.6 -2.1,3.8 -4.5,7.1 -7.3,8.7 -2.8,1.6 -7.6,4.7 -10,5.4 -2.4,0.6 -8.6,0.7 -11.2,-0.8 -2.7,-1.5 -3.7,-1.6 -4.6,-3.5 -0.8,-1.9 -2.8,-11.3 -1.6,-13.2 0.8,-1.3 1.6,-1.8 2.4,-1.6 -0.7,5.2 -0.7,8.9 0,11.2 1.1,3.4 3.6,5.4 5.5,5.8 1.9,0.4 8,0.5 11.3,-1.2 3.3,-1.7 11.3,-5.9 12.5,-9.1 1.2,-3.2 3,-6.6 3.1,-10.2 0.1,-3.6 0.9,-5.3 -1.3,-7 -2.2,-1.7 -5.5,-4.5 -7.9,-5 -2.3,-0.5 -2.3,-0.5 -5.5,-1.5 z" />
        <path
           id="shape45"
           class="st8"
           d="m 110.1,270.7 -13.9,9.5 c -0.7,0.7 -1,1.5 -1,2.3 0,0.8 0.4,2.3 1.3,4.5 l 1.8,1.1 32.7,-0.3 c 2,-1 3.1,-1.9 3.5,-2.7 0.5,-1.2 1.7,-5.5 1.6,-7.4 -0.1,-1.8 -3.2,-11.8 -4.6,-12.8 -1,-0.7 -1.6,0.1 -2,2.4 1.7,0.5 2.7,1.4 3,2.8 0.5,2.1 1.7,6.5 1.3,8.5 -0.4,2 0,4.9 -1.3,5.7 -1.3,0.8 -1.5,2.3 -2.8,2 -0.9,-0.2 -10.8,-0.1 -29.8,0.4 -2.7,-1.8 -3.6,-3.3 -2.6,-4.4 0.9,-1.2 3.1,-2.8 6.4,-4.8 l 8.3,-5.7 c -0.2,-0.4 -0.7,-0.8 -1.9,-1.1 z" />
        <path
           id="shape46"
           class="st8"
           d="m 180.6,262.1 c -0.5,1.6 -2.4,7.8 -3.3,10.5 -0.9,2.7 -3.5,7.5 -4,9.2 -0.3,1.2 -0.7,2.1 -1.1,2.8 l 2.1,3 0.9,0.3 6.8,-0.1 20.8,-13.9 c 0.1,-3.6 -0.2,-6.7 -1,-9.1 -1.2,-3.6 -2.1,-7 -3.3,-6.9 -0.8,0.1 -1.2,0.4 -1.2,1 2.3,4.4 3.5,7 3.5,8 0.1,0.9 -0.1,2.9 -0.6,6 l -17.8,13.3 -4.9,0.7 c -2.2,-0.7 -3.3,-1.5 -3.2,-2.4 0.2,-1.4 4.4,-10.4 5.1,-13.2 0.5,-1.9 1.3,-4.4 2.3,-7.7 0,-0.9 -0.4,-1.3 -1.1,-1.5 z" />
        <path
           id="shape47"
           class="st8"
           d="m 194.1,202.4 c 7,1.4 12.3,2.3 15.9,2.5 5.4,0.3 14,0.8 26.9,-4.3 12.9,-5.1 25.6,-13.5 29.6,-18.1 4,-4.6 9.7,-9.6 13.4,-18 3.7,-8.4 6.9,-17 7.2,-24.8 0.4,-7.9 1.3,-6.9 0,-18.1 -1.3,-11.2 -6.1,-24 -8.6,-28.1 -2.5,-4.1 -7.6,-13.4 -18.4,-21.6 -10.8,-8.1 -19.3,-12.1 -27.5,-14.2 -8.2,-2.1 -9.8,-2.2 -11.7,-1.6 -1.9,0.5 -3.1,0.4 -5.4,2.7 -1.6,1.6 -3,2.9 -4.2,4.1 l -0.5,1.5 7.5,1.3 11.3,8.8 0.7,2.4 c 2.2,-2.1 3.9,-3.4 5,-3.9 1.2,-0.5 1.8,-0.7 1.8,-0.6 0.5,2.5 0.4,4.4 -0.4,5.6 -0.8,1.2 -1.5,2.5 -2.1,3.8 l -0.3,0.9 c 2.1,0 3.8,0.5 5.1,1.3 1.3,0.8 4.2,1.3 8.9,1.5 l 3.2,-0.5 4.9,9.7 c 0.3,1.7 -0.6,3.1 -2.8,4 -3.3,1.4 -5.4,2.7 -7.5,2.4 -1.4,-0.2 -2.4,-0.3 -3.1,-0.5 1,2.7 2.3,4.7 3.9,5.9 2.4,1.8 5.7,4.1 10,4 2.9,-0.1 4.5,0.1 5,0.5 1.8,3.9 2.6,6.8 2.2,8.7 -0.4,1.9 -0.9,3.5 -1.5,4.7 -4.1,1.9 -7.3,2.5 -9.5,1.7 -2.2,-0.8 -3.8,-1.6 -4.7,-2.5 -0.5,1.2 0.1,2.7 1.6,4.6 2.3,2.8 2.2,6 5.3,7.7 2.1,1.1 3.9,2 5.5,2.8 0.2,1.5 -0.4,3 -1.6,4.5 -1.2,1.5 -2.6,3 -4.2,4.5 l -4.3,-0.1 c -2.2,-1.4 -3.5,-3.5 -4.1,-6.1 -0.6,-2.6 -0.8,-5.1 -0.8,-7.3 -1.2,0.6 -2.1,1.7 -2.9,3.3 -0.8,1.6 -1.6,3.6 -2.4,6 l -0.8,3.7 c 0.8,2.2 1.2,2.7 1.4,1.5 0.2,-1.8 0.8,-5.8 1.9,-8.1 0.7,-1.5 1.5,-2.7 2.2,-3.3 l 1.4,8.2 3.9,3.5 h 5.3 l 7,-9.6 c -3.9,-2.5 -6.3,-4.4 -7.3,-5.7 -1,-1.3 -2.7,-3.6 -5.1,-7 3.5,1.3 6.4,1.6 8.7,0.8 2.3,-0.8 4.1,-1.9 5.5,-3.4 l 0.7,-7.6 -2.7,-7.1 c -2.7,-0.7 -5.3,-1.1 -7.8,-1.2 -2.6,-0.1 -4.8,-1.1 -6.6,-2.8 l -2.7,-2.4 c 6.1,-1.6 9.7,-3.1 10.9,-4.5 1.1,-1.5 1.6,-3 1.5,-4.6 l -5.1,-9.3 -2.3,-1.4 c -4.7,0.9 -7.6,1.1 -8.7,0.6 -1.1,-0.5 -2.8,-1.2 -4.8,-2.2 1.4,-2.6 2,-4.7 1.9,-6.2 -0.1,-1.5 -0.3,-3 -0.6,-4.4 -1.6,0.3 -3.2,0.9 -4.6,1.8 -1.4,0.9 -2.5,1.4 -3.1,1.4 -4.2,-3.5 -6.9,-5.8 -8,-6.7 -1.1,-0.9 -3.1,-2.1 -6,-3.7 l -3.3,-0.5 c 3.1,-3.8 6,-5.7 8.7,-5.7 4.1,0 17,3.9 20.8,6.1 3.8,2.2 14.4,5.7 21.1,13.7 6.7,8 14.2,14.7 18.2,31 4,16.3 5.1,15.9 2.7,30.2 -2.4,14.3 -2.6,21.3 -12.1,33.3 -9.5,11.9 -14.5,17.4 -25.5,22.6 -11,5.3 -16.7,8.1 -26.9,8.7 -10.2,0.6 -20.9,-1.6 -23.7,-2 -1.8,-0.3 -2.8,-0.7 -3,-1.2 0,0 0.1,0.8 0.5,2.4 z" />
        <path
           id="shape48"
           class="st8"
           d="m 68.1,147.6 c -1,-0.6 -0.9,-1.8 0.1,-3.5 1,-1.7 1.8,-2.8 2.3,-3.4 l -1.7,-0.8 c -2.1,3.7 -2.9,6 -2.3,7 0.8,1.6 0.8,1.6 1.6,0.7 z" />
        <path
           class="st9"
           d="m 218.6,123.6 -8.8,7.8 -0.6,-1.1 -6.3,-0.3 5.5,9.5 16.4,-14.7 -1.3,-2.6 -5.9,-0.5 z m -11,-32.2 -18.2,15.2 1.7,2.9 6.8,0.7 -1.2,-2.1 9.4,-8 0.7,1.3 6.3,0.7 z"
           id="path1073" />
        <path
           class="st9"
           d="m 213.2,113.5 -27.8,-2.6 10.8,7.4 5.7,9.8 6.3,0.4 -5.5,-9.7 25.6,2 -9,-6.8 -5.2,-9.9 -6.3,-0.8 z"
           id="path1075" />
      </g>
    </g>
  </g>
  <style
     id="style1023">
    .st2{fill-rule:evenodd;clip-rule:evenodd;fill:#303f42}.st3{fill:#f0ce41}.st3,.st8{fill-rule:evenodd;clip-rule:evenodd}.st9{fill:#f7a41d}
  </style>
</svg>
